<?xml version="1.0" encoding="UTF-8" standalone="no"?>
<svg  width="1000" height="750" xmlns="http://www.w3.org/2000/svg" font-family="Liberation Sans,sans-serif" font-size="35" text-anchor="middle" fill="black">

<rect width="1000" height="750" x="0" y="0" fill="#f8f8f8"/>
<rect width="800" height="600" x="150" y="50" stroke="#888888" stroke-width="1" fill="white"/>

<path stroke="none" fill="#fdc" d="
M150,52 L157,56 L163,64 L170,71 L177,78 L183,86 L190,93 L197,101 L203,108 L210,116 L217,123 L223,131 L230,138 L237,145 L243,153 L250,160 L257,168 L263,175 L270,182 L277,190 L283,197 L290,204 L297,212 L303,219 L310,226 L317,233 L323,240 L330,248 L337,255 L343,262 L350,269 L357,276 L363,283 L370,291 L377,298 L383,305 L390,312 L397,319 L403,326 L410,333 L417,340 L423,347 L430,354 L437,361 L443,367 L450,374 L457,381 L463,388 L470,395 L477,402 L483,408 L490,415 L497,422 L503,428 L510,435 L517,441 L523,447 L530,454 L537,460 L543,466 L550,473 L557,479 L563,485 L570,491 L577,497 L583,503 L590,508 L597,514 L603,520 L610,526 L617,531 L623,537 L630,542 L637,548 L643,553 L650,558 L657,563 L663,568 L670,573 L677,577 L683,582 L690,586 L697,590 L703,594 L710,598 L717,602 L723,605 L730,608 L737,611 L743,614 L750,617 L757,619 L763,622 L770,624 L777,626 L783,627 L790,629 L797,630 L803,631 L810,632 L817,633 L823,634 L830,635 L837,636 L843,637 L850,638 L857,639 L863,640 L870,640 L877,641 L883,642 L890,642 L897,643 L903,643 L910,644 L917,645 L923,645 L930,645 L937,646 L943,646
V650 H150
"/>

<path stroke="none" fill="#def" d="
M150,94 L157,98 L163,106 L170,113 L177,120 L183,128 L190,135 L197,143 L203,150 L210,158 L217,165 L223,172 L230,180 L237,187 L243,195 L250,202 L257,209 L263,217 L270,224 L277,231 L283,238 L290,245 L297,252 L303,258 L310,265 L317,272 L323,279 L330,286 L337,293 L343,299 L350,306 L357,313 L363,320 L370,326 L377,333 L383,340 L390,346 L397,353 L403,360 L410,366 L417,373 L423,379 L430,386 L437,393 L443,399 L450,406 L457,412 L463,419 L470,425 L477,431 L483,438 L490,444 L497,450 L503,456 L510,462 L517,468 L523,474 L530,480 L537,485 L543,491 L550,497 L557,502 L563,507 L570,513 L577,518 L583,523 L590,528 L597,533 L603,538 L610,543 L617,548 L623,553 L630,558 L637,563 L643,567 L650,572 L657,576 L663,580 L670,584 L677,588 L683,592 L690,596 L697,599 L703,603 L710,606 L717,609 L723,612 L730,615 L737,617 L743,620 L750,622 L757,624 L763,626 L770,628 L777,629 L783,631 L790,632 L797,633 L803,634 L810,635 L817,636 L823,636 L830,637 L837,638 L843,639 L850,639 L857,640 L863,640 L870,641 L877,642 L883,642 L890,643 L897,643 L903,644 L910,644 L917,645 L923,645 L930,645 L937,646 L943,646
V650 H150
"/>

<g stroke="black" stroke-width="1">
<path d="
M140,50 h810
M140,87.5 h810
M140,125 h810
M140,162.5 h810
M140,200 h810
M140,237.5 h810
M140,275 h810
M140,312.5 h810
M140,350 h810
M140,387.5 h810
M140,425 h810
M140,462.5 h810
M140,500 h810
M140,537.5 h810
M140,575 h810
M140,612.5 h810
M140,650 h810"/>
</g>

<g stroke="black" stroke-width="1">
<path d="M150,50 v610
M216.67,50 v610
M283.33,50 v610
M350,50 v610
M416.67,50 v610
M483.33,50 v610
M550,50 v610
M616.67,50 v610
M683.33,50 v610
M750,50 v610
M816.67,50 v610
M883.33,50 v610
M950,50 v610"/>
</g>

<path stroke="none" fill="#f4fff4" opacity="0.9" d="
M150,52 L157,56 L163,64 L170,71 L177,78 L183,86 L190,93 L197,101 L203,108 L210,116 L217,123 L223,131 L230,138 L237,145 L243,153 L250,160 L257,168 L263,175 L270,182 L277,190 L283,197 L290,204 L297,212 L303,219 L310,226 L317,233 L323,240 L330,248 L337,255 L343,262 L350,269 L357,276 L363,283 L370,291 L377,298 L383,305 L390,312 L397,319 L403,326 L410,333 L417,340 L423,347 L430,354 L437,361 L443,367 L450,374 L457,381 L463,388 L470,395 L477,402 L483,408 L490,415 L497,422 L503,428 L510,435 L517,441 L523,447 L530,454 L537,460 L543,466 L550,473 L557,479 L563,485 L570,491 L577,497 L583,503 L590,508 L597,514 L603,520 L610,526 L617,531 L623,537 L630,542 L637,548 L643,553 L650,558 L657,563 L663,568 L670,573 L677,577 L683,582 L690,586 L697,590 L703,594 L710,598 L717,602 L723,605 L730,608 L737,611 L743,614 L750,617 L757,619 L763,622 L770,624 L777,626 L783,627 L790,629 L797,630 L803,631 L810,632 L817,633 L823,634 L830,635 L837,636 L843,637 L850,638 L857,639 L863,640 L870,640 L877,641 L883,642 L890,642 L897,643 L903,643 L910,644 L917,645 L923,645 L930,645 L937,646 L943,646
H950 V50 H150
"/>

   <g stroke-width="5" fill="none" stroke-linecap="round" stroke-linejoin="round">

<!-- FEMALE -->
<path stroke="#e46" d="
M150,51.7 L156.7,56.2 L163.3,63.6 L170,70.9 L176.7,78.4 L183.3,85.8 L190,93.2 L196.7,100.6 L203.3,108.1 L210,115.6 
L216.7,123 L223.3,130.5 L230,137.9 L236.7,145.3 L243.3,152.8 L250,160.2 L256.7,167.6 L263.3,175 L270,182.3 L276.7,189.7 
L283.3,196.9 L290,204.2 L296.7,211.5 L303.3,218.8 L310,226 L316.7,233.2 L323.3,240.4 L330,247.6 L336.7,254.8 L343.3,262 
L350,269.1 L356.7,276.2 L363.3,283.3 L370,290.5 L376.7,297.5 L383.3,304.6 L390,311.6 L396.7,318.7 L403.3,325.7 L410,332.7 
L416.7,339.7 L423.3,346.6 L430,353.6 L436.7,360.5 L443.3,367.4 L450,374.3 L456.7,381.1 L463.3,388 L470,394.7 L476.7,401.5 
L483.3,408.2 L490,414.9 L496.7,421.5 L503.3,428.1 L510,434.6 L516.7,441.1 L523.3,447.4 L530,453.8 L536.7,460.1 L543.3,466.3 
L550,472.5 L556.7,478.6 L563.3,484.7 L570,490.7 L576.7,496.6 L583.3,502.6 L590,508.4 L596.7,514.3 L603.3,520 L610,525.7 
L616.7,531.4 L623.3,536.9 L630,542.3 L636.7,547.7 L643.3,553 L650,558.1 L656.7,563 L663.3,567.9 L670,572.7 L676.7,577.3 
L683.3,581.8 L690,586 L696.7,590.2 L703.3,594.2 L710,598 L716.7,601.7 L723.3,605.1 L730,608.4 L736.7,611.4 L743.3,614.3 
L750,616.9 L756.7,619.4 L763.3,621.7 L770,623.7 L776.7,625.5 L783.3,627.1 L790,628.6 L796.7,629.9 L803.3,631.1 L810,632.2 
L816.7,633.3 L823.3,634.3 L830,635.3 L836.7,636.2 L843.3,637.1 L850,637.9 L856.7,638.8 L863.3,639.5 L870,640.3 L876.7,640.9 
L883.3,641.6 L890,642.3 L896.7,642.9 L903.3,643.4 L910,644 L916.7,644.5 L923.3,644.9 L930,645.3 L936.7,645.7 L943.3,646 
"/>

<!-- MALE -->
<path stroke="#27b" d="
M150,94.1 L156.7,98.4 L163.3,105.7 L170,113 L176.7,120.4 L183.3,127.8 L190,135.2 L196.7,142.6 L203.3,150.1 L210,157.6 
L216.7,165 L223.3,172.4 L230,179.8 L236.7,187.3 L243.3,194.7 L250,202 L256.7,209.3 L263.3,216.6 L270,223.7 L276.7,230.8 
L283.3,237.7 L290,244.7 L296.7,251.6 L303.3,258.4 L310,265.3 L316.7,272.1 L323.3,278.9 L330,285.7 L336.7,292.6 L343.3,299.3 
L350,306.1 L356.7,312.7 L363.3,319.5 L370,326.2 L376.7,332.8 L383.3,339.6 L390,346.3 L396.7,352.9 L403.3,359.5 L410,366.1 
L416.7,372.7 L423.3,379.3 L430,385.9 L436.7,392.5 L443.3,399.1 L450,405.6 L456.7,412 L463.3,418.5 L470,424.9 L476.7,431.2 
L483.3,437.5 L490,443.8 L496.7,450 L503.3,456.1 L510,462.1 L516.7,468 L523.3,473.9 L530,479.7 L536.7,485.4 L543.3,490.9 
L550,496.5 L556.7,502 L563.3,507.3 L570,512.6 L576.7,517.8 L583.3,523 L590,528.1 L596.7,533.2 L603.3,538.2 L610,543.2 
L616.7,548.1 L623.3,553 L630,557.8 L636.7,562.5 L643.3,567.1 L650,571.6 L656.7,575.9 L663.3,580.1 L670,584.2 L676.7,588.1 
L683.3,592 L690,595.6 L696.7,599.2 L703.3,602.7 L710,605.9 L716.7,609 L723.3,612 L730,614.8 L736.7,617.4 L743.3,619.9 
L750,622.1 L756.7,624.2 L763.3,626.2 L770,627.8 L776.7,629.4 L783.3,630.7 L790,631.9 L796.7,632.9 L803.3,633.9 L810,634.7 
L816.7,635.5 L823.3,636.3 L830,637 L836.7,637.8 L843.3,638.5 L850,639.1 L856.7,639.8 L863.3,640.4 L870,641 L876.7,641.5 
L883.3,642.1 L890,642.7 L896.7,643.1 L903.3,643.6 L910,644.1 L916.7,644.5 L923.3,644.9 L930,645.3 L936.7,645.7 L943.3,646 
"/>

   </g>

<g transform="translate(675,160)" font-size="50">
<text y="0">Remaining</text>
<text y="50">life expectancy</text>
<text y="108" font-size="40">(United States)</text>
</g>

<text transform="translate(48,350) rotate(-90)" font-size="40px">Expected remaining years</text>
<text x="550" y="730" font-size="40px">Current age</text>

<g transform="translate(105,0)">
<text y="62.25">80</text>
<text y="137.25">70</text>
<text y="212.25">60</text>
<text y="287.25">50</text>
<text y="362.25">40</text>
<text y="437.25">30</text>
<text y="512.25">20</text>
<text y="587.25">10</text>
<text y="662.25">0</text>
</g>

<g transform="translate(0,690)" font-size="30">
<text x="150">0</text>
<text x="216.67">10</text>
<text x="283.33">20</text>
<text x="350">30</text>
<text x="416.67">40</text>
<text x="483.33">50</text>
<text x="550">60</text>
<text x="616.67">70</text>
<text x="683.33">80</text>
<text x="750">90</text>
<text x="816.67">100</text>
<text x="883.33">110</text>
<text x="950">120</text>
</g>

<g font-size="50">
<text x="590" y="499" fill="#e46" text-anchor="start">Female</text>
<text x="550" y="536" fill="#27b" text-anchor="end">Male</text>
</g>

         <!-- Cover edges of plot area -->
<rect width="800" height="600" x="150" y="50" stroke="#888888" stroke-width="1" fill="none"/>

</svg>

